<?xml version="1.0" encoding="UTF-8" standalone="no"?>
<!DOCTYPE svg PUBLIC "-//W3C//DTD SVG 1.1//EN" "http://www.w3.org/Graphics/SVG/1.1/DTD/svg11.dtd">
<svg width="100%" height="100%" viewBox="0 0 12 12" xmlns="http://www.w3.org/2000/svg" xmlns:xlink="http://www.w3.org/1999/xlink" xml:space="preserve" style="fill-rule:evenodd;clip-rule:evenodd;stroke-linejoin:round;stroke-miterlimit:2;">
    <g transform="matrix(1,0,0,1,0.708,0.707)">
        <g id="if_misc-_close__1276877_3_">
            <path d="M4.293,5L-0.354,0.354C-0.549,0.158 -0.549,-0.158 -0.354,-0.354C-0.158,-0.549 0.158,-0.549 0.354,-0.354L5,4.293L9.646,-0.354C9.842,-0.549 10.158,-0.549 10.354,-0.354C10.549,-0.158 10.549,0.158 10.354,0.354L5.707,5L10.354,9.646C10.549,9.842 10.549,10.158 10.354,10.354C10.158,10.549 9.842,10.549 9.646,10.354L5,5.707L0.354,10.354C0.158,10.549 -0.158,10.549 -0.354,10.354C-0.549,10.158 -0.549,9.842 -0.354,9.646L4.293,5Z" style="fill:white;"/>
        </g>
    </g>
</svg>
